<?xml version="1.0" encoding="UTF-8" standalone="no"?>
<!DOCTYPE svg PUBLIC "-//W3C//DTD SVG 1.1//EN"
 "http://www.w3.org/Graphics/SVG/1.1/DTD/svg11.dtd">
<!-- Generated by graphviz version 12.2.1 (20241206.2353)
 -->
<!-- Title: G Pages: 1 -->
<svg width="1979pt" height="107pt"
 viewBox="0.00 0.00 1979.00 106.50" xmlns="http://www.w3.org/2000/svg" xmlns:xlink="http://www.w3.org/1999/xlink">
<g id="graph0" class="graph" transform="scale(1 1) rotate(0) translate(4 102.5)">
<title>G</title>
<polygon fill="white" stroke="none" points="-4,4 -4,-102.5 1975,-102.5 1975,4 -4,4"/>
<text text-anchor="middle" x="985.5" y="-7.2" font-family="Times New Roman,serif" font-size="14.00">Cola</text>
<!-- nodo0 -->
<g id="node1" class="node">
<title>nodo0</title>
<polygon fill="none" stroke="black" points="1971,-98.5 1339.25,-98.5 1339.25,-24.5 1971,-24.5 1971,-98.5"/>
<text text-anchor="middle" x="1655.12" y="-81.2" font-family="Times New Roman,serif" font-size="14.00">ID de solicitante: IPC&#45;001</text>
<text text-anchor="middle" x="1655.12" y="-64.7" font-family="Times New Roman,serif" font-size="14.00">ID de imagen: 5</text>
<text text-anchor="middle" x="1655.12" y="-48.2" font-family="Times New Roman,serif" font-size="14.00">Nombre de la figura: IronMan</text>
<text text-anchor="middle" x="1655.12" y="-31.7" font-family="Times New Roman,serif" font-size="14.00">Ruta de la imagen: C:/Users/sebas/Documentos/Vacaciones de diciembre 2024/Archivos de prueba/ironman.xml</text>
</g>
<!-- nodo1 -->
<g id="node2" class="node">
<title>nodo1</title>
<polygon fill="none" stroke="black" points="1303.25,-98.5 671.5,-98.5 671.5,-24.5 1303.25,-24.5 1303.25,-98.5"/>
<text text-anchor="middle" x="987.38" y="-81.2" font-family="Times New Roman,serif" font-size="14.00">ID de solicitante: IPC&#45;001</text>
<text text-anchor="middle" x="987.38" y="-64.7" font-family="Times New Roman,serif" font-size="14.00">ID de imagen: 2</text>
<text text-anchor="middle" x="987.38" y="-48.2" font-family="Times New Roman,serif" font-size="14.00">Nombre de la figura: Capibara</text>
<text text-anchor="middle" x="987.38" y="-31.7" font-family="Times New Roman,serif" font-size="14.00">Ruta de la imagen: C:/Users/sebas/Documentos/Vacaciones de diciembre 2024/Archivos de prueba/capibara.xml</text>
</g>
<!-- nodo0&#45;&gt;nodo1 -->
<g id="edge1" class="edge">
<title>nodo0&#45;&gt;nodo1</title>
<path fill="none" stroke="black" d="M1338.8,-61.5C1330.95,-61.5 1323.09,-61.5 1315.23,-61.5"/>
<polygon fill="black" stroke="black" points="1315.24,-58 1305.24,-61.5 1315.24,-65 1315.24,-58"/>
</g>
<!-- nodo2 -->
<g id="node3" class="node">
<title>nodo2</title>
<polygon fill="none" stroke="black" points="635.5,-98.5 0,-98.5 0,-24.5 635.5,-24.5 635.5,-98.5"/>
<text text-anchor="middle" x="317.75" y="-81.2" font-family="Times New Roman,serif" font-size="14.00">ID de solicitante: IPC&#45;001</text>
<text text-anchor="middle" x="317.75" y="-64.7" font-family="Times New Roman,serif" font-size="14.00">ID de imagen: 4</text>
<text text-anchor="middle" x="317.75" y="-48.2" font-family="Times New Roman,serif" font-size="14.00">Nombre de la figura: Amongus</text>
<text text-anchor="middle" x="317.75" y="-31.7" font-family="Times New Roman,serif" font-size="14.00">Ruta de la imagen: C:/Users/sebas/Documentos/Vacaciones de diciembre 2024/Archivos de prueba/amongus.xml</text>
</g>
<!-- nodo1&#45;&gt;nodo2 -->
<g id="edge2" class="edge">
<title>nodo1&#45;&gt;nodo2</title>
<path fill="none" stroke="black" d="M671.14,-61.5C663.16,-61.5 655.17,-61.5 647.19,-61.5"/>
<polygon fill="black" stroke="black" points="647.42,-58 637.42,-61.5 647.42,-65 647.42,-58"/>
</g>
</g>
</svg>
