<?xml version="1.0" encoding="UTF-8" standalone="no"?>
<!DOCTYPE svg PUBLIC "-//W3C//DTD SVG 1.1//EN"
 "http://www.w3.org/Graphics/SVG/1.1/DTD/svg11.dtd">
<!-- Generated by graphviz version 12.2.1 (20241206.2353)
 -->
<!-- Title: G Pages: 1 -->
<svg width="2560pt" height="107pt"
 viewBox="0.00 0.00 2559.75 106.50" xmlns="http://www.w3.org/2000/svg" xmlns:xlink="http://www.w3.org/1999/xlink">
<g id="graph0" class="graph" transform="scale(1 1) rotate(0) translate(4 102.5)">
<title>G</title>
<polygon fill="white" stroke="none" points="-4,4 -4,-102.5 2555.75,-102.5 2555.75,4 -4,4"/>
<text text-anchor="middle" x="1275.88" y="-7.2" font-family="Times New Roman,serif" font-size="14.00">Cola</text>
<!-- nodo0 -->
<g id="node1" class="node">
<title>nodo0</title>
<polygon fill="none" stroke="black" points="2551.75,-98.5 1917.75,-98.5 1917.75,-24.5 2551.75,-24.5 2551.75,-98.5"/>
<text text-anchor="middle" x="2234.75" y="-81.2" font-family="Times New Roman,serif" font-size="14.00">ID de solicitante: IPC&#45;001</text>
<text text-anchor="middle" x="2234.75" y="-64.7" font-family="Times New Roman,serif" font-size="14.00">ID de imagen: 1</text>
<text text-anchor="middle" x="2234.75" y="-48.2" font-family="Times New Roman,serif" font-size="14.00">Nombre de la figura: Rana naranja</text>
<text text-anchor="middle" x="2234.75" y="-31.7" font-family="Times New Roman,serif" font-size="14.00">Ruta de la imagen: C:/Users/sebas/Documentos/Vacaciones de diciembre 2024/Archivos prueba/rana &#45; copia.xml</text>
</g>
<!-- nodo1 -->
<g id="node2" class="node">
<title>nodo1</title>
<polygon fill="none" stroke="black" points="1881.75,-98.5 1289,-98.5 1289,-24.5 1881.75,-24.5 1881.75,-98.5"/>
<text text-anchor="middle" x="1585.38" y="-81.2" font-family="Times New Roman,serif" font-size="14.00">ID de solicitante: IPC&#45;001</text>
<text text-anchor="middle" x="1585.38" y="-64.7" font-family="Times New Roman,serif" font-size="14.00">ID de imagen: 3</text>
<text text-anchor="middle" x="1585.38" y="-48.2" font-family="Times New Roman,serif" font-size="14.00">Nombre de la figura: Rana</text>
<text text-anchor="middle" x="1585.38" y="-31.7" font-family="Times New Roman,serif" font-size="14.00">Ruta de la imagen: C:/Users/sebas/Documentos/Vacaciones de diciembre 2024/Archivos prueba/rana.xml</text>
</g>
<!-- nodo0&#45;&gt;nodo1 -->
<g id="edge1" class="edge">
<title>nodo0&#45;&gt;nodo1</title>
<path fill="none" stroke="black" d="M1917.65,-61.5C1909.58,-61.5 1901.5,-61.5 1893.43,-61.5"/>
<polygon fill="black" stroke="black" points="1893.56,-58 1883.56,-61.5 1893.56,-65 1893.56,-58"/>
</g>
<!-- nodo2 -->
<g id="node3" class="node">
<title>nodo2</title>
<polygon fill="none" stroke="black" points="1253,-98.5 637.75,-98.5 637.75,-24.5 1253,-24.5 1253,-98.5"/>
<text text-anchor="middle" x="945.38" y="-81.2" font-family="Times New Roman,serif" font-size="14.00">ID de solicitante: IPC&#45;002</text>
<text text-anchor="middle" x="945.38" y="-64.7" font-family="Times New Roman,serif" font-size="14.00">ID de imagen: 2</text>
<text text-anchor="middle" x="945.38" y="-48.2" font-family="Times New Roman,serif" font-size="14.00">Nombre de la figura: Capibara</text>
<text text-anchor="middle" x="945.38" y="-31.7" font-family="Times New Roman,serif" font-size="14.00">Ruta de la imagen: C:/Users/sebas/Documentos/Vacaciones de diciembre 2024/Archivos prueba/capibara.xml</text>
</g>
<!-- nodo1&#45;&gt;nodo2 -->
<g id="edge2" class="edge">
<title>nodo1&#45;&gt;nodo2</title>
<path fill="none" stroke="black" d="M1288.72,-61.5C1280.74,-61.5 1272.75,-61.5 1264.75,-61.5"/>
<polygon fill="black" stroke="black" points="1264.97,-58 1254.97,-61.5 1264.97,-65 1264.97,-58"/>
</g>
<!-- nodo3 -->
<g id="node4" class="node">
<title>nodo3</title>
<polygon fill="none" stroke="black" points="601.75,-98.5 0,-98.5 0,-24.5 601.75,-24.5 601.75,-98.5"/>
<text text-anchor="middle" x="300.88" y="-81.2" font-family="Times New Roman,serif" font-size="14.00">ID de solicitante: IPC&#45;002</text>
<text text-anchor="middle" x="300.88" y="-64.7" font-family="Times New Roman,serif" font-size="14.00">ID de imagen: 5</text>
<text text-anchor="middle" x="300.88" y="-48.2" font-family="Times New Roman,serif" font-size="14.00">Nombre de la figura: Mario</text>
<text text-anchor="middle" x="300.88" y="-31.7" font-family="Times New Roman,serif" font-size="14.00">Ruta de la imagen: C:/Users/sebas/Documentos/Vacaciones de diciembre 2024/Archivos prueba/mario.xml</text>
</g>
<!-- nodo2&#45;&gt;nodo3 -->
<g id="edge3" class="edge">
<title>nodo2&#45;&gt;nodo3</title>
<path fill="none" stroke="black" d="M637.71,-61.5C629.59,-61.5 621.45,-61.5 613.33,-61.5"/>
<polygon fill="black" stroke="black" points="613.36,-58 603.36,-61.5 613.36,-65 613.36,-58"/>
</g>
</g>
</svg>
