<?xml version="1.0" encoding="UTF-8" standalone="no"?>
<!DOCTYPE svg PUBLIC "-//W3C//DTD SVG 1.1//EN"
 "http://www.w3.org/Graphics/SVG/1.1/DTD/svg11.dtd">
<!-- Generated by graphviz version 12.2.1 (20241206.2353)
 -->
<!-- Title: G Pages: 1 -->
<svg width="1465pt" height="107pt"
 viewBox="0.00 0.00 1465.00 106.50" xmlns="http://www.w3.org/2000/svg" xmlns:xlink="http://www.w3.org/1999/xlink">
<g id="graph0" class="graph" transform="scale(1 1) rotate(0) translate(4 102.5)">
<title>G</title>
<polygon fill="white" stroke="none" points="-4,4 -4,-102.5 1461,-102.5 1461,4 -4,4"/>
<text text-anchor="middle" x="728.5" y="-7.2" font-family="Times New Roman,serif" font-size="14.00">Cola</text>
<!-- nodo0 -->
<g id="node1" class="node">
<title>nodo0</title>
<polygon fill="none" stroke="black" points="1457,-98.5 735.25,-98.5 735.25,-24.5 1457,-24.5 1457,-98.5"/>
<text text-anchor="middle" x="1096.12" y="-81.2" font-family="Times New Roman,serif" font-size="14.00">ID de solicitante: IPC&#45;001</text>
<text text-anchor="middle" x="1096.12" y="-64.7" font-family="Times New Roman,serif" font-size="14.00">ID de imagen: 2</text>
<text text-anchor="middle" x="1096.12" y="-48.2" font-family="Times New Roman,serif" font-size="14.00">Nombre de la figura: Capibara</text>
<text text-anchor="middle" x="1096.12" y="-31.7" font-family="Times New Roman,serif" font-size="14.00">Ruta de la imagen: C:/Users/sebas/Documentos/Vacaciones de diciembre 2024/IPC2_ProyectoVD2024_202300694/capibara.xml</text>
</g>
<!-- nodo1 -->
<g id="node2" class="node">
<title>nodo1</title>
<polygon fill="none" stroke="black" points="699.25,-98.5 0,-98.5 0,-24.5 699.25,-24.5 699.25,-98.5"/>
<text text-anchor="middle" x="349.62" y="-81.2" font-family="Times New Roman,serif" font-size="14.00">ID de solicitante: IPC&#45;001</text>
<text text-anchor="middle" x="349.62" y="-64.7" font-family="Times New Roman,serif" font-size="14.00">ID de imagen: 3</text>
<text text-anchor="middle" x="349.62" y="-48.2" font-family="Times New Roman,serif" font-size="14.00">Nombre de la figura: Rana</text>
<text text-anchor="middle" x="349.62" y="-31.7" font-family="Times New Roman,serif" font-size="14.00">Ruta de la imagen: C:/Users/sebas/Documentos/Vacaciones de diciembre 2024/IPC2_ProyectoVD2024_202300694/rana.xml</text>
</g>
<!-- nodo0&#45;&gt;nodo1 -->
<g id="edge1" class="edge">
<title>nodo0&#45;&gt;nodo1</title>
<path fill="none" stroke="black" d="M734.87,-61.5C726.86,-61.5 718.84,-61.5 710.83,-61.5"/>
<polygon fill="black" stroke="black" points="711.03,-58 701.03,-61.5 711.03,-65 711.03,-58"/>
</g>
</g>
</svg>
