<?xml version="1.0" encoding="UTF-8" standalone="no"?>
<!DOCTYPE svg PUBLIC "-//W3C//DTD SVG 1.1//EN"
 "http://www.w3.org/Graphics/SVG/1.1/DTD/svg11.dtd">
<!-- Generated by graphviz version 12.2.1 (20241206.2353)
 -->
<!-- Title: G Pages: 1 -->
<svg width="1122pt" height="129pt"
 viewBox="0.00 0.00 1121.75 129.09" xmlns="http://www.w3.org/2000/svg" xmlns:xlink="http://www.w3.org/1999/xlink">
<g id="graph0" class="graph" transform="scale(1 1) rotate(0) translate(4 125.09)">
<title>G</title>
<polygon fill="white" stroke="none" points="-4,4 -4,-125.09 1117.75,-125.09 1117.75,4 -4,4"/>
<!-- nodo0 -->
<g id="node1" class="node">
<title>nodo0</title>
<polygon fill="none" stroke="black" points="0,-46.59 0,-120.59 347.25,-120.59 347.25,-46.59 0,-46.59"/>
<text text-anchor="middle" x="9.88" y="-78.54" font-family="Times New Roman,serif" font-size="14.00"> </text>
<polyline fill="none" stroke="black" points="19.75,-46.59 19.75,-120.59"/>
<text text-anchor="middle" x="173.62" y="-103.29" font-family="Times New Roman,serif" font-size="14.00">ID de solicitante: IPC&#45;001</text>
<text text-anchor="middle" x="173.62" y="-86.79" font-family="Times New Roman,serif" font-size="14.00">ID de imagen: 5</text>
<text text-anchor="middle" x="173.62" y="-70.29" font-family="Times New Roman,serif" font-size="14.00">Nombre de la figura: IronMan</text>
<text text-anchor="middle" x="173.62" y="-53.79" font-family="Times New Roman,serif" font-size="14.00">Ruta de la imagen: Proyecto1/Reportes/Matriz_5.png</text>
<polyline fill="none" stroke="black" points="327.5,-46.59 327.5,-120.59"/>
<text text-anchor="middle" x="337.38" y="-78.54" font-family="Times New Roman,serif" font-size="14.00"> </text>
</g>
<!-- nodo1 -->
<g id="node2" class="node">
<title>nodo1</title>
<polygon fill="none" stroke="black" points="383.25,-46.59 383.25,-120.59 730.5,-120.59 730.5,-46.59 383.25,-46.59"/>
<text text-anchor="middle" x="393.12" y="-78.54" font-family="Times New Roman,serif" font-size="14.00"> </text>
<polyline fill="none" stroke="black" points="403,-46.59 403,-120.59"/>
<text text-anchor="middle" x="556.88" y="-103.29" font-family="Times New Roman,serif" font-size="14.00">ID de solicitante: IPC&#45;001</text>
<text text-anchor="middle" x="556.88" y="-86.79" font-family="Times New Roman,serif" font-size="14.00">ID de imagen: 2</text>
<text text-anchor="middle" x="556.88" y="-70.29" font-family="Times New Roman,serif" font-size="14.00">Nombre de la figura: Capibara</text>
<text text-anchor="middle" x="556.88" y="-53.79" font-family="Times New Roman,serif" font-size="14.00">Ruta de la imagen: Proyecto1/Reportes/Matriz_2.png</text>
<polyline fill="none" stroke="black" points="710.75,-46.59 710.75,-120.59"/>
<text text-anchor="middle" x="720.62" y="-78.54" font-family="Times New Roman,serif" font-size="14.00"> </text>
</g>
<!-- nodo0&#45;&gt;nodo1 -->
<g id="edge1" class="edge">
<title>nodo0:f2&#45;&gt;nodo1:f1</title>
<path fill="none" stroke="black" d="M358.7,-83.59C363.37,-83.59 367.14,-83.59 371.81,-83.59"/>
<polygon fill="black" stroke="black" points="358.76,-80.09 348.76,-83.59 358.76,-87.09 358.76,-80.09"/>
<polygon fill="black" stroke="black" points="371.74,-87.09 381.74,-83.59 371.74,-80.09 371.74,-87.09"/>
</g>
<!-- nodo2 -->
<g id="node3" class="node">
<title>nodo2</title>
<polygon fill="none" stroke="black" points="766.5,-46.59 766.5,-120.59 1113.75,-120.59 1113.75,-46.59 766.5,-46.59"/>
<text text-anchor="middle" x="776.38" y="-78.54" font-family="Times New Roman,serif" font-size="14.00"> </text>
<polyline fill="none" stroke="black" points="786.25,-46.59 786.25,-120.59"/>
<text text-anchor="middle" x="940.12" y="-103.29" font-family="Times New Roman,serif" font-size="14.00">ID de solicitante: IPC&#45;001</text>
<text text-anchor="middle" x="940.12" y="-86.79" font-family="Times New Roman,serif" font-size="14.00">ID de imagen: 4</text>
<text text-anchor="middle" x="940.12" y="-70.29" font-family="Times New Roman,serif" font-size="14.00">Nombre de la figura: Amongus</text>
<text text-anchor="middle" x="940.12" y="-53.79" font-family="Times New Roman,serif" font-size="14.00">Ruta de la imagen: Proyecto1/Reportes/Matriz_4.png</text>
<polyline fill="none" stroke="black" points="1094,-46.59 1094,-120.59"/>
<text text-anchor="middle" x="1103.88" y="-78.54" font-family="Times New Roman,serif" font-size="14.00"> </text>
</g>
<!-- nodo0&#45;&gt;nodo2 -->
<g id="edge3" class="edge">
<title>nodo0:f1&#45;&gt;nodo2:f2</title>
<path fill="none" stroke="black" d="M17.45,-37.12C109.1,12.35 1003.81,12.37 1096.18,-37.05"/>
<polygon fill="black" stroke="black" points="14.94,-34.67 10.88,-44.46 20.16,-39.33 14.94,-34.67"/>
<polygon fill="black" stroke="black" points="1093.57,-39.38 1102.86,-44.46 1098.77,-34.69 1093.57,-39.38"/>
</g>
<!-- nodo1&#45;&gt;nodo2 -->
<g id="edge2" class="edge">
<title>nodo1:f2&#45;&gt;nodo2:f1</title>
<path fill="none" stroke="black" d="M741.95,-83.59C746.62,-83.59 750.39,-83.59 755.06,-83.59"/>
<polygon fill="black" stroke="black" points="742.01,-80.09 732.01,-83.59 742.01,-87.09 742.01,-80.09"/>
<polygon fill="black" stroke="black" points="754.99,-87.09 764.99,-83.59 754.99,-80.09 754.99,-87.09"/>
</g>
</g>
</svg>
