<?xml version="1.0" encoding="UTF-8" standalone="no"?>
<!DOCTYPE svg PUBLIC "-//W3C//DTD SVG 1.1//EN"
 "http://www.w3.org/Graphics/SVG/1.1/DTD/svg11.dtd">
<!-- Generated by graphviz version 12.2.1 (20241206.2353)
 -->
<!-- Title: G Pages: 1 -->
<svg width="4900pt" height="133pt"
 viewBox="0.00 0.00 4900.00 132.50" xmlns="http://www.w3.org/2000/svg" xmlns:xlink="http://www.w3.org/1999/xlink">
<g id="graph0" class="graph" transform="scale(1 1) rotate(0) translate(4 128.5)">
<title>G</title>
<polygon fill="white" stroke="none" points="-4,4 -4,-128.5 4896,-128.5 4896,4 -4,4"/>
<!-- nodo1 -->
<g id="node1" class="node">
<title>nodo1</title>
<polygon fill="none" stroke="black" points="0,-0.5 0,-124 331.25,-124 331.25,-0.5 0,-0.5"/>
<text text-anchor="middle" x="155.75" y="-106.7" font-family="Times New Roman,serif" font-size="14.00">ID: ART&#45;001</text>
<text text-anchor="middle" x="155.75" y="-90.2" font-family="Times New Roman,serif" font-size="14.00">Password: 1234</text>
<text text-anchor="middle" x="155.75" y="-73.7" font-family="Times New Roman,serif" font-size="14.00">Nombre: Eduardo Gustavo Fring López</text>
<text text-anchor="middle" x="155.75" y="-57.2" font-family="Times New Roman,serif" font-size="14.00">Correo: eduardo.gus@gmail.com</text>
<text text-anchor="middle" x="155.75" y="-40.7" font-family="Times New Roman,serif" font-size="14.00">Numero: 3454 3545</text>
<text text-anchor="middle" x="155.75" y="-24.2" font-family="Times New Roman,serif" font-size="14.00">Especialidades: Pixel Art, animación</text>
<text text-anchor="middle" x="155.75" y="-7.7" font-family="Times New Roman,serif" font-size="14.00">Notas adicionales: Disponible para proyectos urgentes</text>
<polyline fill="none" stroke="black" points="311.5,-0.5 311.5,-124"/>
<text text-anchor="middle" x="321.38" y="-57.2" font-family="Times New Roman,serif" font-size="14.00"> </text>
</g>
<!-- nodo2 -->
<g id="node2" class="node">
<title>nodo2</title>
<polygon fill="none" stroke="black" points="367.25,-0.5 367.25,-124 720.25,-124 720.25,-0.5 367.25,-0.5"/>
<text text-anchor="middle" x="533.88" y="-106.7" font-family="Times New Roman,serif" font-size="14.00">ID: ART&#45;002</text>
<text text-anchor="middle" x="533.88" y="-90.2" font-family="Times New Roman,serif" font-size="14.00">Password: 5678</text>
<text text-anchor="middle" x="533.88" y="-73.7" font-family="Times New Roman,serif" font-size="14.00">Nombre: Lucía Beatriz Martínez Cruz</text>
<text text-anchor="middle" x="533.88" y="-57.2" font-family="Times New Roman,serif" font-size="14.00">Correo: lucia.martinez@gmail.com</text>
<text text-anchor="middle" x="533.88" y="-40.7" font-family="Times New Roman,serif" font-size="14.00">Numero: 1234 5678</text>
<text text-anchor="middle" x="533.88" y="-24.2" font-family="Times New Roman,serif" font-size="14.00">Especialidades: Ilustración digital, diseño gráfico</text>
<text text-anchor="middle" x="533.88" y="-7.7" font-family="Times New Roman,serif" font-size="14.00">Notas adicionales: Interesada en proyectos de videojuegos</text>
<polyline fill="none" stroke="black" points="700.5,-0.5 700.5,-124"/>
<text text-anchor="middle" x="710.38" y="-57.2" font-family="Times New Roman,serif" font-size="14.00"> </text>
</g>
<!-- nodo1&#45;&gt;nodo2 -->
<g id="edge1" class="edge">
<title>nodo1&#45;&gt;nodo2</title>
<path fill="none" stroke="black" d="M331.6,-62.25C339.58,-62.25 347.62,-62.25 355.66,-62.25"/>
<polygon fill="black" stroke="black" points="355.5,-65.75 365.5,-62.25 355.5,-58.75 355.5,-65.75"/>
</g>
<!-- nodo3 -->
<g id="node3" class="node">
<title>nodo3</title>
<polygon fill="none" stroke="black" points="756.25,-0.5 756.25,-124 1101.75,-124 1101.75,-0.5 756.25,-0.5"/>
<text text-anchor="middle" x="919.12" y="-106.7" font-family="Times New Roman,serif" font-size="14.00">ID: ART&#45;003</text>
<text text-anchor="middle" x="919.12" y="-90.2" font-family="Times New Roman,serif" font-size="14.00">Password: 9101</text>
<text text-anchor="middle" x="919.12" y="-73.7" font-family="Times New Roman,serif" font-size="14.00">Nombre: Carlos Alberto Jiménez Torres</text>
<text text-anchor="middle" x="919.12" y="-57.2" font-family="Times New Roman,serif" font-size="14.00">Correo: carlos.jimenez@outlook.com</text>
<text text-anchor="middle" x="919.12" y="-40.7" font-family="Times New Roman,serif" font-size="14.00">Numero: 8765 4321</text>
<text text-anchor="middle" x="919.12" y="-24.2" font-family="Times New Roman,serif" font-size="14.00">Especialidades: Arte conceptual, storyboard</text>
<text text-anchor="middle" x="919.12" y="-7.7" font-family="Times New Roman,serif" font-size="14.00">Notas adicionales: Experiencia en estudios de animación</text>
<polyline fill="none" stroke="black" points="1082,-0.5 1082,-124"/>
<text text-anchor="middle" x="1091.88" y="-57.2" font-family="Times New Roman,serif" font-size="14.00"> </text>
</g>
<!-- nodo2&#45;&gt;nodo3 -->
<g id="edge2" class="edge">
<title>nodo2&#45;&gt;nodo3</title>
<path fill="none" stroke="black" d="M720.67,-62.25C728.63,-62.25 736.62,-62.25 744.6,-62.25"/>
<polygon fill="black" stroke="black" points="744.34,-65.75 754.34,-62.25 744.34,-58.75 744.34,-65.75"/>
</g>
<!-- nodo4 -->
<g id="node4" class="node">
<title>nodo4</title>
<polygon fill="none" stroke="black" points="1137.75,-0.5 1137.75,-124 1533.5,-124 1533.5,-0.5 1137.75,-0.5"/>
<text text-anchor="middle" x="1325.75" y="-106.7" font-family="Times New Roman,serif" font-size="14.00">ID: ART&#45;004</text>
<text text-anchor="middle" x="1325.75" y="-90.2" font-family="Times New Roman,serif" font-size="14.00">Password: 1121</text>
<text text-anchor="middle" x="1325.75" y="-73.7" font-family="Times New Roman,serif" font-size="14.00">Nombre: Sofía Gabriela Rivera Soto</text>
<text text-anchor="middle" x="1325.75" y="-57.2" font-family="Times New Roman,serif" font-size="14.00">Correo: sofia.rivera@yahoo.com</text>
<text text-anchor="middle" x="1325.75" y="-40.7" font-family="Times New Roman,serif" font-size="14.00">Numero: 9988 7766</text>
<text text-anchor="middle" x="1325.75" y="-24.2" font-family="Times New Roman,serif" font-size="14.00">Especialidades: Modelado 3D, escultura digital</text>
<text text-anchor="middle" x="1325.75" y="-7.7" font-family="Times New Roman,serif" font-size="14.00">Notas adicionales: Disponible para colaboraciones internacionales</text>
<polyline fill="none" stroke="black" points="1513.75,-0.5 1513.75,-124"/>
<text text-anchor="middle" x="1523.62" y="-57.2" font-family="Times New Roman,serif" font-size="14.00"> </text>
</g>
<!-- nodo3&#45;&gt;nodo4 -->
<g id="edge3" class="edge">
<title>nodo3&#45;&gt;nodo4</title>
<path fill="none" stroke="black" d="M1102.18,-62.25C1110.08,-62.25 1118.04,-62.25 1126.01,-62.25"/>
<polygon fill="black" stroke="black" points="1125.76,-65.75 1135.76,-62.25 1125.76,-58.75 1125.76,-65.75"/>
</g>
<!-- nodo5 -->
<g id="node5" class="node">
<title>nodo5</title>
<polygon fill="none" stroke="black" points="1569.5,-0.5 1569.5,-124 1890.25,-124 1890.25,-0.5 1569.5,-0.5"/>
<text text-anchor="middle" x="1720" y="-106.7" font-family="Times New Roman,serif" font-size="14.00">ID: ART&#45;005</text>
<text text-anchor="middle" x="1720" y="-90.2" font-family="Times New Roman,serif" font-size="14.00">Password: 3141</text>
<text text-anchor="middle" x="1720" y="-73.7" font-family="Times New Roman,serif" font-size="14.00">Nombre: Diego Alejandro Mendoza Pérez</text>
<text text-anchor="middle" x="1720" y="-57.2" font-family="Times New Roman,serif" font-size="14.00">Correo: diego.mendoza@gmail.com</text>
<text text-anchor="middle" x="1720" y="-40.7" font-family="Times New Roman,serif" font-size="14.00">Numero: 5432 2109</text>
<text text-anchor="middle" x="1720" y="-24.2" font-family="Times New Roman,serif" font-size="14.00">Especialidades: Diseño de personajes, arte de cómic</text>
<text text-anchor="middle" x="1720" y="-7.7" font-family="Times New Roman,serif" font-size="14.00">Notas adicionales: Abierto a proyectos creativos</text>
<polyline fill="none" stroke="black" points="1870.5,-0.5 1870.5,-124"/>
<text text-anchor="middle" x="1880.38" y="-57.2" font-family="Times New Roman,serif" font-size="14.00"> </text>
</g>
<!-- nodo4&#45;&gt;nodo5 -->
<g id="edge4" class="edge">
<title>nodo4&#45;&gt;nodo5</title>
<path fill="none" stroke="black" d="M1533.9,-62.25C1541.94,-62.25 1549.98,-62.25 1557.96,-62.25"/>
<polygon fill="black" stroke="black" points="1557.68,-65.75 1567.68,-62.25 1557.68,-58.75 1557.68,-65.75"/>
</g>
<!-- nodo6 -->
<g id="node6" class="node">
<title>nodo6</title>
<polygon fill="none" stroke="black" points="1926.25,-0.5 1926.25,-124 2241.75,-124 2241.75,-0.5 1926.25,-0.5"/>
<text text-anchor="middle" x="2074.12" y="-106.7" font-family="Times New Roman,serif" font-size="14.00">ID: ART&#45;223</text>
<text text-anchor="middle" x="2074.12" y="-90.2" font-family="Times New Roman,serif" font-size="14.00">Password: 6318</text>
<text text-anchor="middle" x="2074.12" y="-73.7" font-family="Times New Roman,serif" font-size="14.00">Nombre: Miguel Hernández</text>
<text text-anchor="middle" x="2074.12" y="-57.2" font-family="Times New Roman,serif" font-size="14.00">Correo: miguel.hernández@example.com</text>
<text text-anchor="middle" x="2074.12" y="-40.7" font-family="Times New Roman,serif" font-size="14.00">Numero: 818299431</text>
<text text-anchor="middle" x="2074.12" y="-24.2" font-family="Times New Roman,serif" font-size="14.00">Especialidades: Animación, Diseño Gráfico</text>
<text text-anchor="middle" x="2074.12" y="-7.7" font-family="Times New Roman,serif" font-size="14.00">Notas adicionales: Creativo y eficiente en pixel art.</text>
<polyline fill="none" stroke="black" points="2222,-0.5 2222,-124"/>
<text text-anchor="middle" x="2231.88" y="-57.2" font-family="Times New Roman,serif" font-size="14.00"> </text>
</g>
<!-- nodo5&#45;&gt;nodo6 -->
<g id="edge5" class="edge">
<title>nodo5&#45;&gt;nodo6</title>
<path fill="none" stroke="black" d="M1890.71,-62.25C1898.68,-62.25 1906.7,-62.25 1914.69,-62.25"/>
<polygon fill="black" stroke="black" points="1914.46,-65.75 1924.46,-62.25 1914.46,-58.75 1914.46,-65.75"/>
</g>
<!-- nodo7 -->
<g id="node7" class="node">
<title>nodo7</title>
<polygon fill="none" stroke="black" points="2277.75,-0.5 2277.75,-124 2639,-124 2639,-0.5 2277.75,-0.5"/>
<text text-anchor="middle" x="2448.5" y="-106.7" font-family="Times New Roman,serif" font-size="14.00">ID: ART&#45;422</text>
<text text-anchor="middle" x="2448.5" y="-90.2" font-family="Times New Roman,serif" font-size="14.00">Password: 6086</text>
<text text-anchor="middle" x="2448.5" y="-73.7" font-family="Times New Roman,serif" font-size="14.00">Nombre: Juan Sánchez</text>
<text text-anchor="middle" x="2448.5" y="-57.2" font-family="Times New Roman,serif" font-size="14.00">Correo: juan.sánchez@mail.com</text>
<text text-anchor="middle" x="2448.5" y="-40.7" font-family="Times New Roman,serif" font-size="14.00">Numero: 236280522</text>
<text text-anchor="middle" x="2448.5" y="-24.2" font-family="Times New Roman,serif" font-size="14.00">Especialidades: Pixel Art, Concept Art</text>
<text text-anchor="middle" x="2448.5" y="-7.7" font-family="Times New Roman,serif" font-size="14.00">Notas adicionales: Gran atención al detalle en ilustraciones.</text>
<polyline fill="none" stroke="black" points="2619.25,-0.5 2619.25,-124"/>
<text text-anchor="middle" x="2629.12" y="-57.2" font-family="Times New Roman,serif" font-size="14.00"> </text>
</g>
<!-- nodo6&#45;&gt;nodo7 -->
<g id="edge6" class="edge">
<title>nodo6&#45;&gt;nodo7</title>
<path fill="none" stroke="black" d="M2242.11,-62.25C2250.08,-62.25 2258.11,-62.25 2266.17,-62.25"/>
<polygon fill="black" stroke="black" points="2266.04,-65.75 2276.04,-62.25 2266.04,-58.75 2266.04,-65.75"/>
</g>
<!-- nodo8 -->
<g id="node8" class="node">
<title>nodo8</title>
<polygon fill="none" stroke="black" points="2675,-0.5 2675,-124 2989,-124 2989,-0.5 2675,-0.5"/>
<text text-anchor="middle" x="2822.12" y="-106.7" font-family="Times New Roman,serif" font-size="14.00">ID: ART&#45;812</text>
<text text-anchor="middle" x="2822.12" y="-90.2" font-family="Times New Roman,serif" font-size="14.00">Password: 9231</text>
<text text-anchor="middle" x="2822.12" y="-73.7" font-family="Times New Roman,serif" font-size="14.00">Nombre: Pablo Pérez</text>
<text text-anchor="middle" x="2822.12" y="-57.2" font-family="Times New Roman,serif" font-size="14.00">Correo: pablo.pérez@mail.com</text>
<text text-anchor="middle" x="2822.12" y="-40.7" font-family="Times New Roman,serif" font-size="14.00">Numero: 628903057</text>
<text text-anchor="middle" x="2822.12" y="-24.2" font-family="Times New Roman,serif" font-size="14.00">Especialidades: Ilustración Digital, Animación</text>
<text text-anchor="middle" x="2822.12" y="-7.7" font-family="Times New Roman,serif" font-size="14.00">Notas adicionales: Apto para dibujar cosas bonitas.</text>
<polyline fill="none" stroke="black" points="2969.25,-0.5 2969.25,-124"/>
<text text-anchor="middle" x="2979.12" y="-57.2" font-family="Times New Roman,serif" font-size="14.00"> </text>
</g>
<!-- nodo7&#45;&gt;nodo8 -->
<g id="edge7" class="edge">
<title>nodo7&#45;&gt;nodo8</title>
<path fill="none" stroke="black" d="M2639.47,-62.25C2647.37,-62.25 2655.28,-62.25 2663.15,-62.25"/>
<polygon fill="black" stroke="black" points="2663.12,-65.75 2673.12,-62.25 2663.12,-58.75 2663.12,-65.75"/>
</g>
<!-- nodo9 -->
<g id="node9" class="node">
<title>nodo9</title>
<polygon fill="none" stroke="black" points="3025,-0.5 3025,-124 3405.75,-124 3405.75,-0.5 3025,-0.5"/>
<text text-anchor="middle" x="3205.5" y="-106.7" font-family="Times New Roman,serif" font-size="14.00">ID: ART&#45;799</text>
<text text-anchor="middle" x="3205.5" y="-90.2" font-family="Times New Roman,serif" font-size="14.00">Password: 7633</text>
<text text-anchor="middle" x="3205.5" y="-73.7" font-family="Times New Roman,serif" font-size="14.00">Nombre: Ana Sánchez</text>
<text text-anchor="middle" x="3205.5" y="-57.2" font-family="Times New Roman,serif" font-size="14.00">Correo: ana.sánchez@mail.com</text>
<text text-anchor="middle" x="3205.5" y="-40.7" font-family="Times New Roman,serif" font-size="14.00">Numero: 926688553</text>
<text text-anchor="middle" x="3205.5" y="-24.2" font-family="Times New Roman,serif" font-size="14.00">Especialidades: Animación, Diseño Gráfico, Ilustración Digital</text>
<text text-anchor="middle" x="3205.5" y="-7.7" font-family="Times New Roman,serif" font-size="14.00">Notas adicionales: Especialista en retratos digitales.</text>
<polyline fill="none" stroke="black" points="3386,-0.5 3386,-124"/>
<text text-anchor="middle" x="3395.88" y="-57.2" font-family="Times New Roman,serif" font-size="14.00"> </text>
</g>
<!-- nodo8&#45;&gt;nodo9 -->
<g id="edge8" class="edge">
<title>nodo8&#45;&gt;nodo9</title>
<path fill="none" stroke="black" d="M2989.5,-62.25C2997.39,-62.25 3005.37,-62.25 3013.37,-62.25"/>
<polygon fill="black" stroke="black" points="3013.17,-65.75 3023.17,-62.25 3013.17,-58.75 3013.17,-65.75"/>
</g>
<!-- nodo10 -->
<g id="node10" class="node">
<title>nodo10</title>
<polygon fill="none" stroke="black" points="3441.75,-0.5 3441.75,-124 3776.75,-124 3776.75,-0.5 3441.75,-0.5"/>
<text text-anchor="middle" x="3599.38" y="-106.7" font-family="Times New Roman,serif" font-size="14.00">ID: ART&#45;238</text>
<text text-anchor="middle" x="3599.38" y="-90.2" font-family="Times New Roman,serif" font-size="14.00">Password: 7539</text>
<text text-anchor="middle" x="3599.38" y="-73.7" font-family="Times New Roman,serif" font-size="14.00">Nombre: Lucía Vargas</text>
<text text-anchor="middle" x="3599.38" y="-57.2" font-family="Times New Roman,serif" font-size="14.00">Correo: lucía.vargas@mail.com</text>
<text text-anchor="middle" x="3599.38" y="-40.7" font-family="Times New Roman,serif" font-size="14.00">Numero: 968379578</text>
<text text-anchor="middle" x="3599.38" y="-24.2" font-family="Times New Roman,serif" font-size="14.00">Especialidades: Arte 3D, Animación</text>
<text text-anchor="middle" x="3599.38" y="-7.7" font-family="Times New Roman,serif" font-size="14.00">Notas adicionales: Disponible para proyectos urgentes.</text>
<polyline fill="none" stroke="black" points="3757,-0.5 3757,-124"/>
<text text-anchor="middle" x="3766.88" y="-57.2" font-family="Times New Roman,serif" font-size="14.00"> </text>
</g>
<!-- nodo9&#45;&gt;nodo10 -->
<g id="edge9" class="edge">
<title>nodo9&#45;&gt;nodo10</title>
<path fill="none" stroke="black" d="M3406,-62.25C3414.03,-62.25 3422.08,-62.25 3430.09,-62.25"/>
<polygon fill="black" stroke="black" points="3429.86,-65.75 3439.86,-62.25 3429.86,-58.75 3429.86,-65.75"/>
</g>
<!-- nodo11 -->
<g id="node11" class="node">
<title>nodo11</title>
<polygon fill="none" stroke="black" points="3812.75,-0.5 3812.75,-124 4193.5,-124 4193.5,-0.5 3812.75,-0.5"/>
<text text-anchor="middle" x="3993.25" y="-106.7" font-family="Times New Roman,serif" font-size="14.00">ID: ART&#45;593</text>
<text text-anchor="middle" x="3993.25" y="-90.2" font-family="Times New Roman,serif" font-size="14.00">Password: 9142</text>
<text text-anchor="middle" x="3993.25" y="-73.7" font-family="Times New Roman,serif" font-size="14.00">Nombre: Juan Martínez</text>
<text text-anchor="middle" x="3993.25" y="-57.2" font-family="Times New Roman,serif" font-size="14.00">Correo: juan.martínez@example.com</text>
<text text-anchor="middle" x="3993.25" y="-40.7" font-family="Times New Roman,serif" font-size="14.00">Numero: 387905066</text>
<text text-anchor="middle" x="3993.25" y="-24.2" font-family="Times New Roman,serif" font-size="14.00">Especialidades: Ilustración Digital, Diseño Gráfico, Animación</text>
<text text-anchor="middle" x="3993.25" y="-7.7" font-family="Times New Roman,serif" font-size="14.00">Notas adicionales: Especialista en retratos digitales.</text>
<polyline fill="none" stroke="black" points="4173.75,-0.5 4173.75,-124"/>
<text text-anchor="middle" x="4183.62" y="-57.2" font-family="Times New Roman,serif" font-size="14.00"> </text>
</g>
<!-- nodo10&#45;&gt;nodo11 -->
<g id="edge10" class="edge">
<title>nodo10&#45;&gt;nodo11</title>
<path fill="none" stroke="black" d="M3777.01,-62.25C3784.94,-62.25 3792.93,-62.25 3800.94,-62.25"/>
<polygon fill="black" stroke="black" points="3800.75,-65.75 3810.75,-62.25 3800.75,-58.75 3800.75,-65.75"/>
</g>
<!-- nodo12 -->
<g id="node12" class="node">
<title>nodo12</title>
<polygon fill="none" stroke="black" points="4229.5,-0.5 4229.5,-124 4542.75,-124 4542.75,-0.5 4229.5,-0.5"/>
<text text-anchor="middle" x="4376.25" y="-106.7" font-family="Times New Roman,serif" font-size="14.00">ID: ART&#45;864</text>
<text text-anchor="middle" x="4376.25" y="-90.2" font-family="Times New Roman,serif" font-size="14.00">Password: 7041</text>
<text text-anchor="middle" x="4376.25" y="-73.7" font-family="Times New Roman,serif" font-size="14.00">Nombre: Miguel Sánchez</text>
<text text-anchor="middle" x="4376.25" y="-57.2" font-family="Times New Roman,serif" font-size="14.00">Correo: miguel.sánchez@artistmail.com</text>
<text text-anchor="middle" x="4376.25" y="-40.7" font-family="Times New Roman,serif" font-size="14.00">Numero: 632532299</text>
<text text-anchor="middle" x="4376.25" y="-24.2" font-family="Times New Roman,serif" font-size="14.00">Especialidades: Arte 3D</text>
<text text-anchor="middle" x="4376.25" y="-7.7" font-family="Times New Roman,serif" font-size="14.00">Notas adicionales: Ideal para diseño de personajes.</text>
<polyline fill="none" stroke="black" points="4523,-0.5 4523,-124"/>
<text text-anchor="middle" x="4532.88" y="-57.2" font-family="Times New Roman,serif" font-size="14.00"> </text>
</g>
<!-- nodo11&#45;&gt;nodo12 -->
<g id="edge11" class="edge">
<title>nodo11&#45;&gt;nodo12</title>
<path fill="none" stroke="black" d="M4193.79,-62.25C4201.84,-62.25 4209.9,-62.25 4217.89,-62.25"/>
<polygon fill="black" stroke="black" points="4217.65,-65.75 4227.65,-62.25 4217.65,-58.75 4217.65,-65.75"/>
</g>
<!-- nodo13 -->
<g id="node13" class="node">
<title>nodo13</title>
<polygon fill="none" stroke="black" points="4578.75,-0.5 4578.75,-124 4892,-124 4892,-0.5 4578.75,-0.5"/>
<text text-anchor="middle" x="4725.5" y="-106.7" font-family="Times New Roman,serif" font-size="14.00">ID: ART&#45;201</text>
<text text-anchor="middle" x="4725.5" y="-90.2" font-family="Times New Roman,serif" font-size="14.00">Password: 3031</text>
<text text-anchor="middle" x="4725.5" y="-73.7" font-family="Times New Roman,serif" font-size="14.00">Nombre: Lucía Sánchez</text>
<text text-anchor="middle" x="4725.5" y="-57.2" font-family="Times New Roman,serif" font-size="14.00">Correo: lucía.sánchez@pixelworld.net</text>
<text text-anchor="middle" x="4725.5" y="-40.7" font-family="Times New Roman,serif" font-size="14.00">Numero: 899269017</text>
<text text-anchor="middle" x="4725.5" y="-24.2" font-family="Times New Roman,serif" font-size="14.00">Especialidades: Pixel Art</text>
<text text-anchor="middle" x="4725.5" y="-7.7" font-family="Times New Roman,serif" font-size="14.00">Notas adicionales: Ideal para diseño de personajes.</text>
<polyline fill="none" stroke="black" points="4872.25,-0.5 4872.25,-124"/>
<text text-anchor="middle" x="4882.12" y="-57.2" font-family="Times New Roman,serif" font-size="14.00"> </text>
</g>
<!-- nodo12&#45;&gt;nodo13 -->
<g id="edge12" class="edge">
<title>nodo12&#45;&gt;nodo13</title>
<path fill="none" stroke="black" d="M4543.23,-62.25C4551.19,-62.25 4559.2,-62.25 4567.19,-62.25"/>
<polygon fill="black" stroke="black" points="4566.95,-65.75 4576.95,-62.25 4566.95,-58.75 4566.95,-65.75"/>
</g>
</g>
</svg>
