<?xml version="1.0" encoding="UTF-8" standalone="no"?>
<!DOCTYPE svg PUBLIC "-//W3C//DTD SVG 1.1//EN"
 "http://www.w3.org/Graphics/SVG/1.1/DTD/svg11.dtd">
<!-- Generated by graphviz version 12.2.1 (20241206.2353)
 -->
<!-- Title: G Pages: 1 -->
<svg width="1898pt" height="133pt"
 viewBox="0.00 0.00 1898.25 132.50" xmlns="http://www.w3.org/2000/svg" xmlns:xlink="http://www.w3.org/1999/xlink">
<g id="graph0" class="graph" transform="scale(1 1) rotate(0) translate(4 128.5)">
<title>G</title>
<polygon fill="white" stroke="none" points="-4,4 -4,-128.5 1894.25,-128.5 1894.25,4 -4,4"/>
<!-- nodo1 -->
<g id="node1" class="node">
<title>nodo1</title>
<polygon fill="none" stroke="black" points="0,-0.5 0,-124 331.25,-124 331.25,-0.5 0,-0.5"/>
<text text-anchor="middle" x="155.75" y="-106.7" font-family="Times New Roman,serif" font-size="14.00">ID: ART&#45;001</text>
<text text-anchor="middle" x="155.75" y="-90.2" font-family="Times New Roman,serif" font-size="14.00">Password: 1234</text>
<text text-anchor="middle" x="155.75" y="-73.7" font-family="Times New Roman,serif" font-size="14.00">Nombre: Eduardo Gustavo Fring López</text>
<text text-anchor="middle" x="155.75" y="-57.2" font-family="Times New Roman,serif" font-size="14.00">Correo: eduardo.gus@gmail.com</text>
<text text-anchor="middle" x="155.75" y="-40.7" font-family="Times New Roman,serif" font-size="14.00">Numero: 3454 3545</text>
<text text-anchor="middle" x="155.75" y="-24.2" font-family="Times New Roman,serif" font-size="14.00">Especialidades: Pixel Art, animación</text>
<text text-anchor="middle" x="155.75" y="-7.7" font-family="Times New Roman,serif" font-size="14.00">Notas adicionales: Disponible para proyectos urgentes</text>
<polyline fill="none" stroke="black" points="311.5,-0.5 311.5,-124"/>
<text text-anchor="middle" x="321.38" y="-57.2" font-family="Times New Roman,serif" font-size="14.00"> </text>
</g>
<!-- nodo2 -->
<g id="node2" class="node">
<title>nodo2</title>
<polygon fill="none" stroke="black" points="367.25,-0.5 367.25,-124 720.25,-124 720.25,-0.5 367.25,-0.5"/>
<text text-anchor="middle" x="533.88" y="-106.7" font-family="Times New Roman,serif" font-size="14.00">ID: ART&#45;002</text>
<text text-anchor="middle" x="533.88" y="-90.2" font-family="Times New Roman,serif" font-size="14.00">Password: 5678</text>
<text text-anchor="middle" x="533.88" y="-73.7" font-family="Times New Roman,serif" font-size="14.00">Nombre: Lucía Beatriz Martínez Cruz</text>
<text text-anchor="middle" x="533.88" y="-57.2" font-family="Times New Roman,serif" font-size="14.00">Correo: lucia.martinez@gmail.com</text>
<text text-anchor="middle" x="533.88" y="-40.7" font-family="Times New Roman,serif" font-size="14.00">Numero: 1234 5678</text>
<text text-anchor="middle" x="533.88" y="-24.2" font-family="Times New Roman,serif" font-size="14.00">Especialidades: Ilustración digital, diseño gráfico</text>
<text text-anchor="middle" x="533.88" y="-7.7" font-family="Times New Roman,serif" font-size="14.00">Notas adicionales: Interesada en proyectos de videojuegos</text>
<polyline fill="none" stroke="black" points="700.5,-0.5 700.5,-124"/>
<text text-anchor="middle" x="710.38" y="-57.2" font-family="Times New Roman,serif" font-size="14.00"> </text>
</g>
<!-- nodo1&#45;&gt;nodo2 -->
<g id="edge1" class="edge">
<title>nodo1&#45;&gt;nodo2</title>
<path fill="none" stroke="black" d="M331.6,-62.25C339.58,-62.25 347.62,-62.25 355.66,-62.25"/>
<polygon fill="black" stroke="black" points="355.5,-65.75 365.5,-62.25 355.5,-58.75 355.5,-65.75"/>
</g>
<!-- nodo3 -->
<g id="node3" class="node">
<title>nodo3</title>
<polygon fill="none" stroke="black" points="756.25,-0.5 756.25,-124 1101.75,-124 1101.75,-0.5 756.25,-0.5"/>
<text text-anchor="middle" x="919.12" y="-106.7" font-family="Times New Roman,serif" font-size="14.00">ID: ART&#45;003</text>
<text text-anchor="middle" x="919.12" y="-90.2" font-family="Times New Roman,serif" font-size="14.00">Password: 9101</text>
<text text-anchor="middle" x="919.12" y="-73.7" font-family="Times New Roman,serif" font-size="14.00">Nombre: Carlos Alberto Jiménez Torres</text>
<text text-anchor="middle" x="919.12" y="-57.2" font-family="Times New Roman,serif" font-size="14.00">Correo: carlos.jimenez@outlook.com</text>
<text text-anchor="middle" x="919.12" y="-40.7" font-family="Times New Roman,serif" font-size="14.00">Numero: 8765 4321</text>
<text text-anchor="middle" x="919.12" y="-24.2" font-family="Times New Roman,serif" font-size="14.00">Especialidades: Arte conceptual, storyboard</text>
<text text-anchor="middle" x="919.12" y="-7.7" font-family="Times New Roman,serif" font-size="14.00">Notas adicionales: Experiencia en estudios de animación</text>
<polyline fill="none" stroke="black" points="1082,-0.5 1082,-124"/>
<text text-anchor="middle" x="1091.88" y="-57.2" font-family="Times New Roman,serif" font-size="14.00"> </text>
</g>
<!-- nodo2&#45;&gt;nodo3 -->
<g id="edge2" class="edge">
<title>nodo2&#45;&gt;nodo3</title>
<path fill="none" stroke="black" d="M720.67,-62.25C728.63,-62.25 736.62,-62.25 744.6,-62.25"/>
<polygon fill="black" stroke="black" points="744.34,-65.75 754.34,-62.25 744.34,-58.75 744.34,-65.75"/>
</g>
<!-- nodo4 -->
<g id="node4" class="node">
<title>nodo4</title>
<polygon fill="none" stroke="black" points="1137.75,-0.5 1137.75,-124 1533.5,-124 1533.5,-0.5 1137.75,-0.5"/>
<text text-anchor="middle" x="1325.75" y="-106.7" font-family="Times New Roman,serif" font-size="14.00">ID: ART&#45;004</text>
<text text-anchor="middle" x="1325.75" y="-90.2" font-family="Times New Roman,serif" font-size="14.00">Password: 1121</text>
<text text-anchor="middle" x="1325.75" y="-73.7" font-family="Times New Roman,serif" font-size="14.00">Nombre: Sofía Gabriela Rivera Soto</text>
<text text-anchor="middle" x="1325.75" y="-57.2" font-family="Times New Roman,serif" font-size="14.00">Correo: sofia.rivera@yahoo.com</text>
<text text-anchor="middle" x="1325.75" y="-40.7" font-family="Times New Roman,serif" font-size="14.00">Numero: 9988 7766</text>
<text text-anchor="middle" x="1325.75" y="-24.2" font-family="Times New Roman,serif" font-size="14.00">Especialidades: Modelado 3D, escultura digital</text>
<text text-anchor="middle" x="1325.75" y="-7.7" font-family="Times New Roman,serif" font-size="14.00">Notas adicionales: Disponible para colaboraciones internacionales</text>
<polyline fill="none" stroke="black" points="1513.75,-0.5 1513.75,-124"/>
<text text-anchor="middle" x="1523.62" y="-57.2" font-family="Times New Roman,serif" font-size="14.00"> </text>
</g>
<!-- nodo3&#45;&gt;nodo4 -->
<g id="edge3" class="edge">
<title>nodo3&#45;&gt;nodo4</title>
<path fill="none" stroke="black" d="M1102.18,-62.25C1110.08,-62.25 1118.04,-62.25 1126.01,-62.25"/>
<polygon fill="black" stroke="black" points="1125.76,-65.75 1135.76,-62.25 1125.76,-58.75 1125.76,-65.75"/>
</g>
<!-- nodo5 -->
<g id="node5" class="node">
<title>nodo5</title>
<polygon fill="none" stroke="black" points="1569.5,-0.5 1569.5,-124 1890.25,-124 1890.25,-0.5 1569.5,-0.5"/>
<text text-anchor="middle" x="1720" y="-106.7" font-family="Times New Roman,serif" font-size="14.00">ID: ART&#45;005</text>
<text text-anchor="middle" x="1720" y="-90.2" font-family="Times New Roman,serif" font-size="14.00">Password: 3141</text>
<text text-anchor="middle" x="1720" y="-73.7" font-family="Times New Roman,serif" font-size="14.00">Nombre: Diego Alejandro Mendoza Pérez</text>
<text text-anchor="middle" x="1720" y="-57.2" font-family="Times New Roman,serif" font-size="14.00">Correo: diego.mendoza@gmail.com</text>
<text text-anchor="middle" x="1720" y="-40.7" font-family="Times New Roman,serif" font-size="14.00">Numero: 5432 2109</text>
<text text-anchor="middle" x="1720" y="-24.2" font-family="Times New Roman,serif" font-size="14.00">Especialidades: Diseño de personajes, arte de cómic</text>
<text text-anchor="middle" x="1720" y="-7.7" font-family="Times New Roman,serif" font-size="14.00">Notas adicionales: Abierto a proyectos creativos</text>
<polyline fill="none" stroke="black" points="1870.5,-0.5 1870.5,-124"/>
<text text-anchor="middle" x="1880.38" y="-57.2" font-family="Times New Roman,serif" font-size="14.00"> </text>
</g>
<!-- nodo4&#45;&gt;nodo5 -->
<g id="edge4" class="edge">
<title>nodo4&#45;&gt;nodo5</title>
<path fill="none" stroke="black" d="M1533.9,-62.25C1541.94,-62.25 1549.98,-62.25 1557.96,-62.25"/>
<polygon fill="black" stroke="black" points="1557.68,-65.75 1567.68,-62.25 1557.68,-58.75 1557.68,-65.75"/>
</g>
</g>
</svg>
