<?xml version="1.0" encoding="UTF-8" standalone="no"?>
<!DOCTYPE svg PUBLIC "-//W3C//DTD SVG 1.1//EN"
 "http://www.w3.org/Graphics/SVG/1.1/DTD/svg11.dtd">
<!-- Generated by graphviz version 12.2.1 (20241206.2353)
 -->
<!-- Title: G Pages: 1 -->
<svg width="3040pt" height="116pt"
 viewBox="0.00 0.00 3039.50 116.00" xmlns="http://www.w3.org/2000/svg" xmlns:xlink="http://www.w3.org/1999/xlink">
<g id="graph0" class="graph" transform="scale(1 1) rotate(0) translate(4 112)">
<title>G</title>
<polygon fill="white" stroke="none" points="-4,4 -4,-112 3035.5,-112 3035.5,4 -4,4"/>
<!-- nodo1 -->
<g id="node1" class="node">
<title>nodo1</title>
<polygon fill="none" stroke="black" points="0,-0.5 0,-107.5 298.5,-107.5 298.5,-0.5 0,-0.5"/>
<text text-anchor="middle" x="9.88" y="-48.95" font-family="Times New Roman,serif" font-size="14.00"> </text>
<polyline fill="none" stroke="black" points="19.75,-0.5 19.75,-107.5"/>
<text text-anchor="middle" x="149.25" y="-90.2" font-family="Times New Roman,serif" font-size="14.00">ID: IPC&#45;001</text>
<text text-anchor="middle" x="149.25" y="-73.7" font-family="Times New Roman,serif" font-size="14.00">Password: 1234</text>
<text text-anchor="middle" x="149.25" y="-57.2" font-family="Times New Roman,serif" font-size="14.00">Nombre: Juan Antonio Perez Silva</text>
<text text-anchor="middle" x="149.25" y="-40.7" font-family="Times New Roman,serif" font-size="14.00">Correo: juanperez@gmail.com</text>
<text text-anchor="middle" x="149.25" y="-24.2" font-family="Times New Roman,serif" font-size="14.00">Numero: 3436 3436</text>
<text text-anchor="middle" x="149.25" y="-7.7" font-family="Times New Roman,serif" font-size="14.00">Dirección: Guatemala, ciudad de Guatemala</text>
<polyline fill="none" stroke="black" points="278.75,-0.5 278.75,-107.5"/>
<text text-anchor="middle" x="288.62" y="-48.95" font-family="Times New Roman,serif" font-size="14.00"> </text>
</g>
<!-- nodo2 -->
<g id="node2" class="node">
<title>nodo2</title>
<polygon fill="none" stroke="black" points="334.5,-0.5 334.5,-107.5 637.5,-107.5 637.5,-0.5 334.5,-0.5"/>
<text text-anchor="middle" x="344.38" y="-48.95" font-family="Times New Roman,serif" font-size="14.00"> </text>
<polyline fill="none" stroke="black" points="354.25,-0.5 354.25,-107.5"/>
<text text-anchor="middle" x="486" y="-90.2" font-family="Times New Roman,serif" font-size="14.00">ID: IPC&#45;002</text>
<text text-anchor="middle" x="486" y="-73.7" font-family="Times New Roman,serif" font-size="14.00">Password: 5678</text>
<text text-anchor="middle" x="486" y="-57.2" font-family="Times New Roman,serif" font-size="14.00">Nombre: Maria Fernanda López Gómez</text>
<text text-anchor="middle" x="486" y="-40.7" font-family="Times New Roman,serif" font-size="14.00">Correo: maria.lopez@gmail.com</text>
<text text-anchor="middle" x="486" y="-24.2" font-family="Times New Roman,serif" font-size="14.00">Numero: 1234 5678</text>
<text text-anchor="middle" x="486" y="-7.7" font-family="Times New Roman,serif" font-size="14.00">Dirección: Antigua Guatemala, Sacatepéquez</text>
<polyline fill="none" stroke="black" points="617.75,-0.5 617.75,-107.5"/>
<text text-anchor="middle" x="627.62" y="-48.95" font-family="Times New Roman,serif" font-size="14.00"> </text>
</g>
<!-- nodo1&#45;&gt;nodo2 -->
<g id="edge1" class="edge">
<title>nodo1:f2&#45;&gt;nodo2:f1</title>
<path fill="none" stroke="black" d="M298.5,-54C309.88,-54 315.18,-54 323.05,-54"/>
<polygon fill="black" stroke="black" points="322.99,-57.5 332.99,-54 322.99,-50.5 322.99,-57.5"/>
</g>
<!-- nodo2&#45;&gt;nodo1 -->
<g id="edge2" class="edge">
<title>nodo2:f1&#45;&gt;nodo1:f2</title>
<path fill="none" stroke="black" d="M334.5,-54C323.12,-54 317.82,-54 309.95,-54"/>
<polygon fill="black" stroke="black" points="310.01,-50.5 300.01,-54 310.01,-57.5 310.01,-50.5"/>
</g>
<!-- nodo3 -->
<g id="node3" class="node">
<title>nodo3</title>
<polygon fill="none" stroke="black" points="673.5,-0.5 673.5,-107.5 959.25,-107.5 959.25,-0.5 673.5,-0.5"/>
<text text-anchor="middle" x="683.38" y="-48.95" font-family="Times New Roman,serif" font-size="14.00"> </text>
<polyline fill="none" stroke="black" points="693.25,-0.5 693.25,-107.5"/>
<text text-anchor="middle" x="816.38" y="-90.2" font-family="Times New Roman,serif" font-size="14.00">ID: IPC&#45;003</text>
<text text-anchor="middle" x="816.38" y="-73.7" font-family="Times New Roman,serif" font-size="14.00">Password: 9101</text>
<text text-anchor="middle" x="816.38" y="-57.2" font-family="Times New Roman,serif" font-size="14.00">Nombre: Carlos Alberto Méndez Ramírez</text>
<text text-anchor="middle" x="816.38" y="-40.7" font-family="Times New Roman,serif" font-size="14.00">Correo: carlos.mendez@hotmail.com</text>
<text text-anchor="middle" x="816.38" y="-24.2" font-family="Times New Roman,serif" font-size="14.00">Numero: 8765 4321</text>
<text text-anchor="middle" x="816.38" y="-7.7" font-family="Times New Roman,serif" font-size="14.00">Dirección: Escuintla, Guatemala</text>
<polyline fill="none" stroke="black" points="939.5,-0.5 939.5,-107.5"/>
<text text-anchor="middle" x="949.38" y="-48.95" font-family="Times New Roman,serif" font-size="14.00"> </text>
</g>
<!-- nodo2&#45;&gt;nodo3 -->
<g id="edge3" class="edge">
<title>nodo2:f2&#45;&gt;nodo3:f1</title>
<path fill="none" stroke="black" d="M637.5,-54C648.88,-54 654.18,-54 662.05,-54"/>
<polygon fill="black" stroke="black" points="661.99,-57.5 671.99,-54 661.99,-50.5 661.99,-57.5"/>
</g>
<!-- nodo3&#45;&gt;nodo2 -->
<g id="edge4" class="edge">
<title>nodo3:f1&#45;&gt;nodo2:f2</title>
<path fill="none" stroke="black" d="M673.5,-54C662.12,-54 656.82,-54 648.95,-54"/>
<polygon fill="black" stroke="black" points="649.01,-50.5 639.01,-54 649.01,-57.5 649.01,-50.5"/>
</g>
<!-- nodo4 -->
<g id="node4" class="node">
<title>nodo4</title>
<polygon fill="none" stroke="black" points="995.25,-0.5 995.25,-107.5 1272.75,-107.5 1272.75,-0.5 995.25,-0.5"/>
<text text-anchor="middle" x="1005.12" y="-48.95" font-family="Times New Roman,serif" font-size="14.00"> </text>
<polyline fill="none" stroke="black" points="1015,-0.5 1015,-107.5"/>
<text text-anchor="middle" x="1134" y="-90.2" font-family="Times New Roman,serif" font-size="14.00">ID: IPC&#45;004</text>
<text text-anchor="middle" x="1134" y="-73.7" font-family="Times New Roman,serif" font-size="14.00">Password: 1121</text>
<text text-anchor="middle" x="1134" y="-57.2" font-family="Times New Roman,serif" font-size="14.00">Nombre: Daniela Margarita Santos Cruz</text>
<text text-anchor="middle" x="1134" y="-40.7" font-family="Times New Roman,serif" font-size="14.00">Correo: daniela.santos@yahoo.com</text>
<text text-anchor="middle" x="1134" y="-24.2" font-family="Times New Roman,serif" font-size="14.00">Numero: 9988 7766</text>
<text text-anchor="middle" x="1134" y="-7.7" font-family="Times New Roman,serif" font-size="14.00">Dirección: Quetzaltenango, Guatemala</text>
<polyline fill="none" stroke="black" points="1253,-0.5 1253,-107.5"/>
<text text-anchor="middle" x="1262.88" y="-48.95" font-family="Times New Roman,serif" font-size="14.00"> </text>
</g>
<!-- nodo3&#45;&gt;nodo4 -->
<g id="edge5" class="edge">
<title>nodo3:f2&#45;&gt;nodo4:f1</title>
<path fill="none" stroke="black" d="M959.25,-54C970.62,-54 975.93,-54 983.8,-54"/>
<polygon fill="black" stroke="black" points="983.74,-57.5 993.74,-54 983.74,-50.5 983.74,-57.5"/>
</g>
<!-- nodo4&#45;&gt;nodo3 -->
<g id="edge6" class="edge">
<title>nodo4:f1&#45;&gt;nodo3:f2</title>
<path fill="none" stroke="black" d="M995.25,-54C983.88,-54 978.57,-54 970.7,-54"/>
<polygon fill="black" stroke="black" points="970.76,-50.5 960.76,-54 970.76,-57.5 970.76,-50.5"/>
</g>
<!-- nodo5 -->
<g id="node5" class="node">
<title>nodo5</title>
<polygon fill="none" stroke="black" points="1308.75,-0.5 1308.75,-107.5 1565.25,-107.5 1565.25,-0.5 1308.75,-0.5"/>
<text text-anchor="middle" x="1318.62" y="-48.95" font-family="Times New Roman,serif" font-size="14.00"> </text>
<polyline fill="none" stroke="black" points="1328.5,-0.5 1328.5,-107.5"/>
<text text-anchor="middle" x="1437" y="-90.2" font-family="Times New Roman,serif" font-size="14.00">ID: IPC&#45;005</text>
<text text-anchor="middle" x="1437" y="-73.7" font-family="Times New Roman,serif" font-size="14.00">Password: 3141</text>
<text text-anchor="middle" x="1437" y="-57.2" font-family="Times New Roman,serif" font-size="14.00">Nombre: José Manuel Castillo Pérez</text>
<text text-anchor="middle" x="1437" y="-40.7" font-family="Times New Roman,serif" font-size="14.00">Correo: jose.castillo@outlook.com</text>
<text text-anchor="middle" x="1437" y="-24.2" font-family="Times New Roman,serif" font-size="14.00">Numero: 5432 2109</text>
<text text-anchor="middle" x="1437" y="-7.7" font-family="Times New Roman,serif" font-size="14.00">Dirección: Chiquimula, Guatemala</text>
<polyline fill="none" stroke="black" points="1545.5,-0.5 1545.5,-107.5"/>
<text text-anchor="middle" x="1555.38" y="-48.95" font-family="Times New Roman,serif" font-size="14.00"> </text>
</g>
<!-- nodo4&#45;&gt;nodo5 -->
<g id="edge7" class="edge">
<title>nodo4:f2&#45;&gt;nodo5:f1</title>
<path fill="none" stroke="black" d="M1272.75,-54C1284.12,-54 1289.43,-54 1297.3,-54"/>
<polygon fill="black" stroke="black" points="1297.24,-57.5 1307.24,-54 1297.24,-50.5 1297.24,-57.5"/>
</g>
<!-- nodo5&#45;&gt;nodo4 -->
<g id="edge8" class="edge">
<title>nodo5:f1&#45;&gt;nodo4:f2</title>
<path fill="none" stroke="black" d="M1308.75,-54C1297.38,-54 1292.07,-54 1284.2,-54"/>
<polygon fill="black" stroke="black" points="1284.26,-50.5 1274.26,-54 1284.26,-57.5 1284.26,-50.5"/>
</g>
<!-- nodo6 -->
<g id="node6" class="node">
<title>nodo6</title>
<polygon fill="none" stroke="black" points="1601.25,-0.5 1601.25,-107.5 1853.25,-107.5 1853.25,-0.5 1601.25,-0.5"/>
<text text-anchor="middle" x="1611.12" y="-48.95" font-family="Times New Roman,serif" font-size="14.00"> </text>
<polyline fill="none" stroke="black" points="1621,-0.5 1621,-107.5"/>
<text text-anchor="middle" x="1727.25" y="-90.2" font-family="Times New Roman,serif" font-size="14.00">ID: IPC&#45;006</text>
<text text-anchor="middle" x="1727.25" y="-73.7" font-family="Times New Roman,serif" font-size="14.00">Password: 6958</text>
<text text-anchor="middle" x="1727.25" y="-57.2" font-family="Times New Roman,serif" font-size="14.00">Nombre: Diego Torres</text>
<text text-anchor="middle" x="1727.25" y="-40.7" font-family="Times New Roman,serif" font-size="14.00">Correo: diego.torres@example.com</text>
<text text-anchor="middle" x="1727.25" y="-24.2" font-family="Times New Roman,serif" font-size="14.00">Numero: 80134227</text>
<text text-anchor="middle" x="1727.25" y="-7.7" font-family="Times New Roman,serif" font-size="14.00">Dirección: Escuintla, Guatemala</text>
<polyline fill="none" stroke="black" points="1833.5,-0.5 1833.5,-107.5"/>
<text text-anchor="middle" x="1843.38" y="-48.95" font-family="Times New Roman,serif" font-size="14.00"> </text>
</g>
<!-- nodo5&#45;&gt;nodo6 -->
<g id="edge9" class="edge">
<title>nodo5:f2&#45;&gt;nodo6:f1</title>
<path fill="none" stroke="black" d="M1565.25,-54C1576.62,-54 1581.93,-54 1589.8,-54"/>
<polygon fill="black" stroke="black" points="1589.74,-57.5 1599.74,-54 1589.74,-50.5 1589.74,-57.5"/>
</g>
<!-- nodo6&#45;&gt;nodo5 -->
<g id="edge10" class="edge">
<title>nodo6:f1&#45;&gt;nodo5:f2</title>
<path fill="none" stroke="black" d="M1601.25,-54C1589.88,-54 1584.57,-54 1576.7,-54"/>
<polygon fill="black" stroke="black" points="1576.76,-50.5 1566.76,-54 1576.76,-57.5 1576.76,-50.5"/>
</g>
<!-- nodo7 -->
<g id="node7" class="node">
<title>nodo7</title>
<polygon fill="none" stroke="black" points="1889.25,-0.5 1889.25,-107.5 2133.75,-107.5 2133.75,-0.5 1889.25,-0.5"/>
<text text-anchor="middle" x="1899.12" y="-48.95" font-family="Times New Roman,serif" font-size="14.00"> </text>
<polyline fill="none" stroke="black" points="1909,-0.5 1909,-107.5"/>
<text text-anchor="middle" x="2011.5" y="-90.2" font-family="Times New Roman,serif" font-size="14.00">ID: IPC&#45;007</text>
<text text-anchor="middle" x="2011.5" y="-73.7" font-family="Times New Roman,serif" font-size="14.00">Password: 8701</text>
<text text-anchor="middle" x="2011.5" y="-57.2" font-family="Times New Roman,serif" font-size="14.00">Nombre: Carlos Ruiz</text>
<text text-anchor="middle" x="2011.5" y="-40.7" font-family="Times New Roman,serif" font-size="14.00">Correo: carlos.ruiz@example.com</text>
<text text-anchor="middle" x="2011.5" y="-24.2" font-family="Times New Roman,serif" font-size="14.00">Numero: 27595614</text>
<text text-anchor="middle" x="2011.5" y="-7.7" font-family="Times New Roman,serif" font-size="14.00">Dirección: Cobán, Guatemala</text>
<polyline fill="none" stroke="black" points="2114,-0.5 2114,-107.5"/>
<text text-anchor="middle" x="2123.88" y="-48.95" font-family="Times New Roman,serif" font-size="14.00"> </text>
</g>
<!-- nodo6&#45;&gt;nodo7 -->
<g id="edge11" class="edge">
<title>nodo6:f2&#45;&gt;nodo7:f1</title>
<path fill="none" stroke="black" d="M1853.25,-54C1864.62,-54 1869.93,-54 1877.8,-54"/>
<polygon fill="black" stroke="black" points="1877.74,-57.5 1887.74,-54 1877.74,-50.5 1877.74,-57.5"/>
</g>
<!-- nodo7&#45;&gt;nodo6 -->
<g id="edge12" class="edge">
<title>nodo7:f1&#45;&gt;nodo6:f2</title>
<path fill="none" stroke="black" d="M1889.25,-54C1877.88,-54 1872.57,-54 1864.7,-54"/>
<polygon fill="black" stroke="black" points="1864.76,-50.5 1854.76,-54 1864.76,-57.5 1864.76,-50.5"/>
</g>
<!-- nodo8 -->
<g id="node8" class="node">
<title>nodo8</title>
<polygon fill="none" stroke="black" points="2169.75,-0.5 2169.75,-107.5 2437.5,-107.5 2437.5,-0.5 2169.75,-0.5"/>
<text text-anchor="middle" x="2179.62" y="-48.95" font-family="Times New Roman,serif" font-size="14.00"> </text>
<polyline fill="none" stroke="black" points="2189.5,-0.5 2189.5,-107.5"/>
<text text-anchor="middle" x="2303.62" y="-90.2" font-family="Times New Roman,serif" font-size="14.00">ID: IPC&#45;008</text>
<text text-anchor="middle" x="2303.62" y="-73.7" font-family="Times New Roman,serif" font-size="14.00">Password: 4912</text>
<text text-anchor="middle" x="2303.62" y="-57.2" font-family="Times New Roman,serif" font-size="14.00">Nombre: Diego Torres</text>
<text text-anchor="middle" x="2303.62" y="-40.7" font-family="Times New Roman,serif" font-size="14.00">Correo: diego.torres@correo.com</text>
<text text-anchor="middle" x="2303.62" y="-24.2" font-family="Times New Roman,serif" font-size="14.00">Numero: 17208214</text>
<text text-anchor="middle" x="2303.62" y="-7.7" font-family="Times New Roman,serif" font-size="14.00">Dirección: Quetzaltenango, Guatemala</text>
<polyline fill="none" stroke="black" points="2417.75,-0.5 2417.75,-107.5"/>
<text text-anchor="middle" x="2427.62" y="-48.95" font-family="Times New Roman,serif" font-size="14.00"> </text>
</g>
<!-- nodo7&#45;&gt;nodo8 -->
<g id="edge13" class="edge">
<title>nodo7:f2&#45;&gt;nodo8:f1</title>
<path fill="none" stroke="black" d="M2133.75,-54C2145.12,-54 2150.43,-54 2158.3,-54"/>
<polygon fill="black" stroke="black" points="2158.24,-57.5 2168.24,-54 2158.24,-50.5 2158.24,-57.5"/>
</g>
<!-- nodo8&#45;&gt;nodo7 -->
<g id="edge14" class="edge">
<title>nodo8:f1&#45;&gt;nodo7:f2</title>
<path fill="none" stroke="black" d="M2169.75,-54C2158.38,-54 2153.07,-54 2145.2,-54"/>
<polygon fill="black" stroke="black" points="2145.26,-50.5 2135.26,-54 2145.26,-57.5 2145.26,-50.5"/>
</g>
<!-- nodo9 -->
<g id="node9" class="node">
<title>nodo9</title>
<polygon fill="none" stroke="black" points="2473.5,-0.5 2473.5,-107.5 2727.75,-107.5 2727.75,-0.5 2473.5,-0.5"/>
<text text-anchor="middle" x="2483.38" y="-48.95" font-family="Times New Roman,serif" font-size="14.00"> </text>
<polyline fill="none" stroke="black" points="2493.25,-0.5 2493.25,-107.5"/>
<text text-anchor="middle" x="2600.62" y="-90.2" font-family="Times New Roman,serif" font-size="14.00">ID: IPC&#45;009</text>
<text text-anchor="middle" x="2600.62" y="-73.7" font-family="Times New Roman,serif" font-size="14.00">Password: 3328</text>
<text text-anchor="middle" x="2600.62" y="-57.2" font-family="Times New Roman,serif" font-size="14.00">Nombre: Luis Hernández</text>
<text text-anchor="middle" x="2600.62" y="-40.7" font-family="Times New Roman,serif" font-size="14.00">Correo: luis.hernández@correo.com</text>
<text text-anchor="middle" x="2600.62" y="-24.2" font-family="Times New Roman,serif" font-size="14.00">Numero: 65184529</text>
<text text-anchor="middle" x="2600.62" y="-7.7" font-family="Times New Roman,serif" font-size="14.00">Dirección: Escuintla, Guatemala</text>
<polyline fill="none" stroke="black" points="2708,-0.5 2708,-107.5"/>
<text text-anchor="middle" x="2717.88" y="-48.95" font-family="Times New Roman,serif" font-size="14.00"> </text>
</g>
<!-- nodo8&#45;&gt;nodo9 -->
<g id="edge15" class="edge">
<title>nodo8:f2&#45;&gt;nodo9:f1</title>
<path fill="none" stroke="black" d="M2437.5,-54C2448.88,-54 2454.18,-54 2462.05,-54"/>
<polygon fill="black" stroke="black" points="2461.99,-57.5 2471.99,-54 2461.99,-50.5 2461.99,-57.5"/>
</g>
<!-- nodo9&#45;&gt;nodo8 -->
<g id="edge16" class="edge">
<title>nodo9:f1&#45;&gt;nodo8:f2</title>
<path fill="none" stroke="black" d="M2473.5,-54C2462.12,-54 2456.82,-54 2448.95,-54"/>
<polygon fill="black" stroke="black" points="2449.01,-50.5 2439.01,-54 2449.01,-57.5 2449.01,-50.5"/>
</g>
<!-- nodo10 -->
<g id="node10" class="node">
<title>nodo10</title>
<polygon fill="none" stroke="black" points="2763.75,-0.5 2763.75,-107.5 3031.5,-107.5 3031.5,-0.5 2763.75,-0.5"/>
<text text-anchor="middle" x="2773.62" y="-48.95" font-family="Times New Roman,serif" font-size="14.00"> </text>
<polyline fill="none" stroke="black" points="2783.5,-0.5 2783.5,-107.5"/>
<text text-anchor="middle" x="2897.62" y="-90.2" font-family="Times New Roman,serif" font-size="14.00">ID: IPC&#45;010</text>
<text text-anchor="middle" x="2897.62" y="-73.7" font-family="Times New Roman,serif" font-size="14.00">Password: 3777</text>
<text text-anchor="middle" x="2897.62" y="-57.2" font-family="Times New Roman,serif" font-size="14.00">Nombre: Diego Torres</text>
<text text-anchor="middle" x="2897.62" y="-40.7" font-family="Times New Roman,serif" font-size="14.00">Correo: diego.torres@example.com</text>
<text text-anchor="middle" x="2897.62" y="-24.2" font-family="Times New Roman,serif" font-size="14.00">Numero: 47860837</text>
<text text-anchor="middle" x="2897.62" y="-7.7" font-family="Times New Roman,serif" font-size="14.00">Dirección: Quetzaltenango, Guatemala</text>
<polyline fill="none" stroke="black" points="3011.75,-0.5 3011.75,-107.5"/>
<text text-anchor="middle" x="3021.62" y="-48.95" font-family="Times New Roman,serif" font-size="14.00"> </text>
</g>
<!-- nodo9&#45;&gt;nodo10 -->
<g id="edge17" class="edge">
<title>nodo9:f2&#45;&gt;nodo10:f1</title>
<path fill="none" stroke="black" d="M2727.75,-54C2739.12,-54 2744.43,-54 2752.3,-54"/>
<polygon fill="black" stroke="black" points="2752.24,-57.5 2762.24,-54 2752.24,-50.5 2752.24,-57.5"/>
</g>
<!-- nodo10&#45;&gt;nodo9 -->
<g id="edge18" class="edge">
<title>nodo10:f1&#45;&gt;nodo9:f2</title>
<path fill="none" stroke="black" d="M2763.75,-54C2752.38,-54 2747.07,-54 2739.2,-54"/>
<polygon fill="black" stroke="black" points="2739.26,-50.5 2729.26,-54 2739.26,-57.5 2739.26,-50.5"/>
</g>
</g>
</svg>
