<?xml version="1.0" encoding="UTF-8" standalone="no"?>
<!DOCTYPE svg PUBLIC "-//W3C//DTD SVG 1.1//EN"
 "http://www.w3.org/Graphics/SVG/1.1/DTD/svg11.dtd">
<!-- Generated by graphviz version 12.2.1 (20241206.2353)
 -->
<!-- Title: G Pages: 1 -->
<svg width="644pt" height="174pt"
 viewBox="0.00 0.00 644.25 173.50" xmlns="http://www.w3.org/2000/svg" xmlns:xlink="http://www.w3.org/1999/xlink">
<g id="graph0" class="graph" transform="scale(1 1) rotate(0) translate(4 169.5)">
<title>G</title>
<polygon fill="white" stroke="none" points="-4,4 -4,-169.5 640.25,-169.5 640.25,4 -4,4"/>
<!-- Pila -->
<g id="node1" class="node">
<title>Pila</title>
<path fill="none" stroke="black" d="M33,-17C33,-17 624.25,-17 624.25,-17 630.25,-17 636.25,-23 636.25,-29 636.25,-29 636.25,-153 636.25,-153 636.25,-159 630.25,-165 624.25,-165 624.25,-165 33,-165 33,-165 27,-165 21,-159 21,-153 21,-153 21,-29 21,-29 21,-23 27,-17 33,-17"/>
<text text-anchor="middle" x="328.62" y="-147.7" font-family="Times New Roman,serif" font-size="14.00">ID de solicitante: IPC&#45;001</text>
<text text-anchor="middle" x="328.62" y="-131.2" font-family="Times New Roman,serif" font-size="14.00">ID de imagen: 2</text>
<text text-anchor="middle" x="328.62" y="-114.7" font-family="Times New Roman,serif" font-size="14.00">Nombre de la figura: Capibara</text>
<text text-anchor="middle" x="328.62" y="-98.2" font-family="Times New Roman,serif" font-size="14.00">Ruta de la imagen: C:/Users/sebas/Documentos/Vacaciones de diciembre 2024/Archivos prueba/capibara.xml</text>
<polyline fill="none" stroke="black" points="21,-91 636.25,-91"/>
<text text-anchor="middle" x="328.62" y="-73.7" font-family="Times New Roman,serif" font-size="14.00">ID de solicitante: IPC&#45;001</text>
<text text-anchor="middle" x="328.62" y="-57.2" font-family="Times New Roman,serif" font-size="14.00">ID de imagen: 3</text>
<text text-anchor="middle" x="328.62" y="-40.7" font-family="Times New Roman,serif" font-size="14.00">Nombre de la figura: Rana</text>
<text text-anchor="middle" x="328.62" y="-24.2" font-family="Times New Roman,serif" font-size="14.00">Ruta de la imagen: C:/Users/sebas/Documentos/Vacaciones de diciembre 2024/Archivos prueba/rana.xml</text>
<text text-anchor="middle" x="10.5" y="-3.2" font-family="Times New Roman,serif" font-size="14.00">Pila</text>
</g>
</g>
</svg>
