<?xml version="1.0" encoding="UTF-8" standalone="no"?>
<!DOCTYPE svg PUBLIC "-//W3C//DTD SVG 1.1//EN"
 "http://www.w3.org/Graphics/SVG/1.1/DTD/svg11.dtd">
<!-- Generated by graphviz version 12.2.1 (20241206.2353)
 -->
<!-- Title: G Pages: 1 -->
<svg width="663pt" height="248pt"
 viewBox="0.00 0.00 663.00 247.50" xmlns="http://www.w3.org/2000/svg" xmlns:xlink="http://www.w3.org/1999/xlink">
<g id="graph0" class="graph" transform="scale(1 1) rotate(0) translate(4 243.5)">
<title>G</title>
<polygon fill="white" stroke="none" points="-4,4 -4,-243.5 659,-243.5 659,4 -4,4"/>
<!-- Pila -->
<g id="node1" class="node">
<title>Pila</title>
<path fill="none" stroke="black" d="M33,-17C33,-17 643,-17 643,-17 649,-17 655,-23 655,-29 655,-29 655,-227 655,-227 655,-233 649,-239 643,-239 643,-239 33,-239 33,-239 27,-239 21,-233 21,-227 21,-227 21,-29 21,-29 21,-23 27,-17 33,-17"/>
<text text-anchor="middle" x="338" y="-221.7" font-family="Times New Roman,serif" font-size="14.00">ID de solicitante: IPC&#45;002</text>
<text text-anchor="middle" x="338" y="-205.2" font-family="Times New Roman,serif" font-size="14.00">ID de imagen: 2</text>
<text text-anchor="middle" x="338" y="-188.7" font-family="Times New Roman,serif" font-size="14.00">Nombre de la figura: Capibara</text>
<text text-anchor="middle" x="338" y="-172.2" font-family="Times New Roman,serif" font-size="14.00">Ruta de la imagen: C:/Users/sebas/Documentos/Vacaciones de diciembre 2024/Archivos prueba/capibara.xml</text>
<polyline fill="none" stroke="black" points="21,-165 655,-165"/>
<text text-anchor="middle" x="338" y="-147.7" font-family="Times New Roman,serif" font-size="14.00">ID de solicitante: IPC&#45;002</text>
<text text-anchor="middle" x="338" y="-131.2" font-family="Times New Roman,serif" font-size="14.00">ID de imagen: 1</text>
<text text-anchor="middle" x="338" y="-114.7" font-family="Times New Roman,serif" font-size="14.00">Nombre de la figura: Rana naranja</text>
<text text-anchor="middle" x="338" y="-98.2" font-family="Times New Roman,serif" font-size="14.00">Ruta de la imagen: C:/Users/sebas/Documentos/Vacaciones de diciembre 2024/Archivos prueba/rana &#45; copia.xml</text>
<polyline fill="none" stroke="black" points="21,-91 655,-91"/>
<text text-anchor="middle" x="338" y="-73.7" font-family="Times New Roman,serif" font-size="14.00">ID de solicitante: IPC&#45;002</text>
<text text-anchor="middle" x="338" y="-57.2" font-family="Times New Roman,serif" font-size="14.00">ID de imagen: 3</text>
<text text-anchor="middle" x="338" y="-40.7" font-family="Times New Roman,serif" font-size="14.00">Nombre de la figura: Rana</text>
<text text-anchor="middle" x="338" y="-24.2" font-family="Times New Roman,serif" font-size="14.00">Ruta de la imagen: C:/Users/sebas/Documentos/Vacaciones de diciembre 2024/Archivos prueba/rana.xml</text>
<text text-anchor="middle" x="10.5" y="-3.2" font-family="Times New Roman,serif" font-size="14.00">Pila</text>
</g>
</g>
</svg>
