<?xml version="1.0" encoding="UTF-8" standalone="no"?>
<!DOCTYPE svg PUBLIC "-//W3C//DTD SVG 1.1//EN"
 "http://www.w3.org/Graphics/SVG/1.1/DTD/svg11.dtd">
<!-- Generated by graphviz version 12.2.1 (20241206.2353)
 -->
<!-- Title: G Pages: 1 -->
<svg width="728pt" height="100pt"
 viewBox="0.00 0.00 728.25 99.50" xmlns="http://www.w3.org/2000/svg" xmlns:xlink="http://www.w3.org/1999/xlink">
<g id="graph0" class="graph" transform="scale(1 1) rotate(0) translate(4 95.5)">
<title>G</title>
<polygon fill="white" stroke="none" points="-4,4 -4,-95.5 724.25,-95.5 724.25,4 -4,4"/>
<!-- Pila -->
<g id="node1" class="node">
<title>Pila</title>
<path fill="none" stroke="black" d="M33,-17C33,-17 708.25,-17 708.25,-17 714.25,-17 720.25,-23 720.25,-29 720.25,-29 720.25,-79 720.25,-79 720.25,-85 714.25,-91 708.25,-91 708.25,-91 33,-91 33,-91 27,-91 21,-85 21,-79 21,-79 21,-29 21,-29 21,-23 27,-17 33,-17"/>
<text text-anchor="middle" x="370.62" y="-73.7" font-family="Times New Roman,serif" font-size="14.00">ID de solicitante: IPC&#45;001</text>
<text text-anchor="middle" x="370.62" y="-57.2" font-family="Times New Roman,serif" font-size="14.00">ID de imagen: 3</text>
<text text-anchor="middle" x="370.62" y="-40.7" font-family="Times New Roman,serif" font-size="14.00">Nombre de la figura: Rana</text>
<text text-anchor="middle" x="370.62" y="-24.2" font-family="Times New Roman,serif" font-size="14.00">Ruta de la imagen: C:/Users/sebas/Documentos/Vacaciones de diciembre 2024/IPC2_ProyectoVD2024_202300694/rana.xml</text>
<text text-anchor="middle" x="10.5" y="-3.2" font-family="Times New Roman,serif" font-size="14.00">Pila</text>
</g>
</g>
</svg>
