<?xml version="1.0" encoding="UTF-8" standalone="no"?>
<!DOCTYPE svg PUBLIC "-//W3C//DTD SVG 1.1//EN"
 "http://www.w3.org/Graphics/SVG/1.1/DTD/svg11.dtd">
<!-- Generated by graphviz version 12.2.1 (20241206.2353)
 -->
<!-- Title: G Pages: 1 -->
<svg width="1063pt" height="104pt"
 viewBox="0.00 0.00 1062.50 103.89" xmlns="http://www.w3.org/2000/svg" xmlns:xlink="http://www.w3.org/1999/xlink">
<g id="graph0" class="graph" transform="scale(1 1) rotate(0) translate(4 99.89)">
<title>G</title>
<polygon fill="white" stroke="none" points="-4,4 -4,-99.89 1058.5,-99.89 1058.5,4 -4,4"/>
<!-- nodo0 -->
<g id="node1" class="node">
<title>nodo0</title>
<polygon fill="none" stroke="black" points="0,-21.39 0,-95.39 327.5,-95.39 327.5,-21.39 0,-21.39"/>
<text text-anchor="middle" x="153.88" y="-78.09" font-family="Times New Roman,serif" font-size="14.00">ID de solicitante: IPC&#45;001</text>
<text text-anchor="middle" x="153.88" y="-61.59" font-family="Times New Roman,serif" font-size="14.00">ID de imagen: 5</text>
<text text-anchor="middle" x="153.88" y="-45.09" font-family="Times New Roman,serif" font-size="14.00">Nombre de la figura: IronMan</text>
<text text-anchor="middle" x="153.88" y="-28.59" font-family="Times New Roman,serif" font-size="14.00">Ruta de la imagen: Proyecto1/Reportes/Matriz_5.png</text>
<polyline fill="none" stroke="black" points="307.75,-21.39 307.75,-95.39"/>
<text text-anchor="middle" x="317.62" y="-53.34" font-family="Times New Roman,serif" font-size="14.00"> </text>
</g>
<!-- nodo1 -->
<g id="node2" class="node">
<title>nodo1</title>
<polygon fill="none" stroke="black" points="363.5,-21.39 363.5,-95.39 691,-95.39 691,-21.39 363.5,-21.39"/>
<text text-anchor="middle" x="517.38" y="-78.09" font-family="Times New Roman,serif" font-size="14.00">ID de solicitante: IPC&#45;001</text>
<text text-anchor="middle" x="517.38" y="-61.59" font-family="Times New Roman,serif" font-size="14.00">ID de imagen: 2</text>
<text text-anchor="middle" x="517.38" y="-45.09" font-family="Times New Roman,serif" font-size="14.00">Nombre de la figura: Capibara</text>
<text text-anchor="middle" x="517.38" y="-28.59" font-family="Times New Roman,serif" font-size="14.00">Ruta de la imagen: Proyecto1/Reportes/Matriz_2.png</text>
<polyline fill="none" stroke="black" points="671.25,-21.39 671.25,-95.39"/>
<text text-anchor="middle" x="681.12" y="-53.34" font-family="Times New Roman,serif" font-size="14.00"> </text>
</g>
<!-- nodo0&#45;&gt;nodo1 -->
<g id="edge1" class="edge">
<title>nodo0&#45;&gt;nodo1</title>
<path fill="none" stroke="black" d="M327.79,-58.39C335.8,-58.39 343.87,-58.39 351.92,-58.39"/>
<polygon fill="black" stroke="black" points="351.77,-61.89 361.77,-58.39 351.77,-54.89 351.77,-61.89"/>
</g>
<!-- nodo2 -->
<g id="node3" class="node">
<title>nodo2</title>
<polygon fill="none" stroke="black" points="727,-21.39 727,-95.39 1054.5,-95.39 1054.5,-21.39 727,-21.39"/>
<text text-anchor="middle" x="880.88" y="-78.09" font-family="Times New Roman,serif" font-size="14.00">ID de solicitante: IPC&#45;001</text>
<text text-anchor="middle" x="880.88" y="-61.59" font-family="Times New Roman,serif" font-size="14.00">ID de imagen: 4</text>
<text text-anchor="middle" x="880.88" y="-45.09" font-family="Times New Roman,serif" font-size="14.00">Nombre de la figura: Amongus</text>
<text text-anchor="middle" x="880.88" y="-28.59" font-family="Times New Roman,serif" font-size="14.00">Ruta de la imagen: Proyecto1/Reportes/Matriz_4.png</text>
<polyline fill="none" stroke="black" points="1034.75,-21.39 1034.75,-95.39"/>
<text text-anchor="middle" x="1044.62" y="-53.34" font-family="Times New Roman,serif" font-size="14.00"> </text>
</g>
<!-- nodo1&#45;&gt;nodo2 -->
<g id="edge2" class="edge">
<title>nodo1&#45;&gt;nodo2</title>
<path fill="none" stroke="black" d="M691.29,-58.39C699.3,-58.39 707.37,-58.39 715.42,-58.39"/>
<polygon fill="black" stroke="black" points="715.27,-61.89 725.27,-58.39 715.27,-54.89 715.27,-61.89"/>
</g>
<!-- nodo2&#45;&gt;nodo0 -->
<g id="edge3" class="edge">
<title>nodo2&#45;&gt;nodo0</title>
<path fill="none" stroke="black" d="M745.23,-20.92C727.08,-17.41 708.68,-14.41 691,-12.39 546.38,4.13 508.12,4.13 363.5,-12.39 349.41,-14 334.86,-16.23 320.35,-18.85"/>
<polygon fill="black" stroke="black" points="319.94,-15.36 310.76,-20.64 321.23,-22.24 319.94,-15.36"/>
</g>
</g>
</svg>
