<?xml version="1.0" encoding="UTF-8" standalone="no"?>
<!DOCTYPE svg PUBLIC "-//W3C//DTD SVG 1.1//EN"
 "http://www.w3.org/Graphics/SVG/1.1/DTD/svg11.dtd">
<!-- Generated by graphviz version 12.2.1 (20241206.2353)
 -->
<!-- Title: G Pages: 1 -->
<svg width="336pt" height="101pt"
 viewBox="0.00 0.00 335.50 101.00" xmlns="http://www.w3.org/2000/svg" xmlns:xlink="http://www.w3.org/1999/xlink">
<g id="graph0" class="graph" transform="scale(1 1) rotate(0) translate(4 97)">
<title>G</title>
<polygon fill="white" stroke="none" points="-4,4 -4,-97 331.5,-97 331.5,4 -4,4"/>
<!-- nodo0 -->
<g id="node1" class="node">
<title>nodo0</title>
<polygon fill="none" stroke="black" points="0,-0.5 0,-74.5 327.5,-74.5 327.5,-0.5 0,-0.5"/>
<text text-anchor="middle" x="153.88" y="-57.2" font-family="Times New Roman,serif" font-size="14.00">ID de solicitante: IPC&#45;001</text>
<text text-anchor="middle" x="153.88" y="-40.7" font-family="Times New Roman,serif" font-size="14.00">ID de imagen: 2</text>
<text text-anchor="middle" x="153.88" y="-24.2" font-family="Times New Roman,serif" font-size="14.00">Nombre de la figura: Capibara</text>
<text text-anchor="middle" x="153.88" y="-7.7" font-family="Times New Roman,serif" font-size="14.00">Ruta de la imagen: Proyecto1/Reportes/Matriz_2.png</text>
<polyline fill="none" stroke="black" points="307.75,-0.5 307.75,-74.5"/>
<text text-anchor="middle" x="317.62" y="-32.45" font-family="Times New Roman,serif" font-size="14.00"> </text>
</g>
<!-- nodo0&#45;&gt;nodo0 -->
<g id="edge1" class="edge">
<title>nodo0&#45;&gt;nodo0</title>
<path fill="none" stroke="black" d="M102.72,-74.85C105.67,-85.14 126.01,-93 163.75,-93 189.99,-93 207.82,-89.2 217.24,-83.43"/>
<polygon fill="black" stroke="black" points="219.81,-85.81 223.78,-75.99 214.55,-81.19 219.81,-85.81"/>
</g>
</g>
</svg>
